# xmcd CD database file
#
# Track frame offsets:
#	150
#	29071
#	49358
#	67224
#	78667
#	92038
#	108992
#	121545
#	140775
#	165960
#	183826
#	195269
#	207822
#	227052
#
# Disc length: 3295 seconds
#
# Revision: 0
# Processed by: cddbd v1.5.2PL0 Copyright (c) Steve Scherf et al.
# Submitted via: CDex 1.70beta2
#
DISCID=be0cdd0e
DTITLE=CYTOKINE - ⑨ -maruQ-
DYEAR=2008
DGENRE=東方アレンジ
TTITLE0=Theme of Opening - Theme of Eastern story -
TTITLE1=＼けんこうてゐのうた／
TTITLE2=明日ハレの日、ケの昨日
TTITLE3=おこりめさるな
TTITLE4=The MaruQ Musume
TTITLE5=Native Faith
TTITLE6=LNA-6B
TTITLE7=籠 - Cage -
TTITLE8=Theme of Ending - 天空の花の都 -
TTITLE9=明日ハレの日、ケの昨日（without Vocal Track）
TTITLE10=おこりめさるな（without Vocal Track）
TTITLE11=LNA-6B（without Vocal Track）
TTITLE12=籠 - Cage -（without Vocal Track）
TTITLE13=＼けんこうてゐのうた／（without Vocal Track？）
EXTD=YEAR: 2008
EXTT0=
EXTT1=
EXTT2=
EXTT3=
EXTT4=
EXTT5=
EXTT6=
EXTT7=
EXTT8=
EXTT9=
EXTT10=
EXTT11=
EXTT12=
EXTT13=
PLAYORDER=
